<?xml version="1.0" standalone="no"?>
<!DOCTYPE svg PUBLIC "-//W3C//DTD SVG 20010904//EN"
 "http://www.w3.org/TR/2001/REC-SVG-20010904/DTD/svg10.dtd">
<svg version="1.0" xmlns="http://www.w3.org/2000/svg"
 width="80.000000pt" height="80.000000pt" viewBox="0 0 80.000000 80.000000"
 preserveAspectRatio="xMidYMid meet">
<metadata>
Created by potrace 1.16, written by Peter Selinger 2001-2019
</metadata>
<g transform="translate(0.000000,80.000000) scale(0.100000,-0.100000)"
fill="#000000" stroke="none">
<path d="M0 400 l0 -400 400 0 400 0 0 400 0 400 -400 0 -400 0 0 -400z m430
154 c20 -23 16 -68 -8 -105 l-22 -34 0 78 c0 77 6 90 30 61z m-157 -55 c21 -5
58 -29 82 -53 42 -39 45 -46 45 -93 0 -49 -1 -51 -31 -57 -17 -3 -43 -6 -58
-6 -14 -1 -44 -7 -65 -15 l-40 -14 -50 49 c-47 46 -51 54 -51 96 0 39 5 50 33
75 35 32 70 36 135 18z m378 -28 c33 -33 37 -67 14 -111 -20 -39 -83 -82 -104
-70 -9 4 -44 14 -78 20 l-63 13 0 39 c0 111 155 184 231 109z m-131 -195 c23
-8 36 -20 38 -34 3 -19 1 -20 -30 -11 -42 12 -128 12 -128 0 0 -5 28 -12 63
-16 73 -9 107 -20 107 -36 0 -11 -11 -10 -132 8 -31 4 -38 2 -38 -11 0 -11 9
-16 28 -16 42 0 102 -12 102 -20 0 -9 -71 -30 -104 -30 -21 0 -26 5 -26 25 0
23 -4 25 -43 25 -23 0 -69 -7 -101 -15 -57 -15 -79 -14 -60 4 15 14 75 30 142
37 43 4 62 11 62 20 0 20 -99 14 -189 -12 -18 -5 -23 -4 -19 7 7 20 73 37 146
38 59 1 62 2 62 26 0 23 4 25 43 24 23 0 58 -6 77 -13z"/>
<path d="M150 460 c-36 -36 -22 -96 32 -139 27 -22 33 -23 85 -12 31 6 71 11
88 11 30 0 31 2 27 33 -12 90 -174 165 -232 107z"/>
</g>
</svg>
